<svg xmlns="http://www.w3.org/2000/svg" viewBox="0 0 45.48 45.48"><defs><style>.cls-1{fill:#f2fbfc;}</style></defs><title>atk</title><g id="圖層_2" data-name="圖層 2"><g id="圖層_1-2" data-name="圖層 1"><rect class="cls-1" x="21.96" y="40.77" width="1.57" height="1.57"/><rect class="cls-1" x="25.09" y="40.77" width="1.57" height="1.57"/><rect class="cls-1" x="18.82" y="40.77" width="1.57" height="1.57"/><path class="cls-1" d="M8.17,29l1.24-1.24,8.3,8.3-1.24,1.24Z"/><path class="cls-1" d="M3.92,40l3.92-3.92,1.57,1.57L5.49,41.56Z"/><path class="cls-1" d="M7.38,32.93l1.24-1.24,5.17,5.16L12.55,38.1Z"/><path class="cls-1" d="M.32,40,0,40.31v.92l4.25,4.25h.91l.33-.33v-.92L1.24,40Z"/><path class="cls-1" d="M21.69,16.74,6.71,0H1.11L18.2,17.09,17.09,18.2,0,1.11v5.6L17,22Z"/><path class="cls-1" d="M36.07,37.64l1.57-1.57L41.56,40,40,41.56Z"/><path class="cls-1" d="M44.23,40,40,44.23v.92l.32.33h.92l4.25-4.25v-.92L45.15,40Z"/><path class="cls-1" d="M28.39,18.2l-1.11-1.11L44.37,0h-5.6L12.84,29l1.27,1.28,12-12,1.1,1.11-12,12,1.28,1.28,29-25.93V1.11Z"/><path class="cls-1" d="M31.69,36.85l5.16-5.16,1.25,1.24L32.93,38.1Z"/><path class="cls-1" d="M23.92,28.1,29,32.64l1.28-1.28-4.72-4.71Z"/><path class="cls-1" d="M27.77,36.07l8.3-8.3L37.31,29,29,37.31Z"/><path class="cls-1" d="M32.64,29l-4.32-4.82L26.71,25.6l4.65,4.66Z"/><path class="cls-1" d="M22.74,11.92l2.19-3.29-2.19-3.3-2.19,3.3Z"/><path class="cls-1" d="M18.71,1l1.45-.6,1.2,2.9-1.44.6Z"/><path class="cls-1" d="M14.47,6.05l.6-1.45L18,5.8l-.6,1.45Z"/><path class="cls-1" d="M27.51,5.8l2.9-1.2L31,6.05l-2.9,1.2Z"/><path class="cls-1" d="M24.11,3.26,25.32.36l1.44.6-1.2,2.9Z"/></g></g></svg>