<svg xmlns="http://www.w3.org/2000/svg" viewBox="0 0 40.82 50.95"><defs><style>.cls-1{fill:#f2fbfc;}</style></defs><title>def</title><g id="圖層_2" data-name="圖層 2"><g id="圖層_1-2" data-name="圖層 1"><path class="cls-1" d="M21.26,12.76a.85.85,0,1,1-.85-.86.86.86,0,0,1,.85.86Z"/><path class="cls-1" d="M22.26,18.12l-1.49-2.85a1.64,1.64,0,0,1-.72,0l-1.49,2.85a6.71,6.71,0,0,1,3.7,0Z"/><path class="cls-1" d="M15.85,19.62l0-.06H12.5l0,0L14,22.46a6.92,6.92,0,0,1,1.87-2.84Z"/><path class="cls-1" d="M14,26.86l-1.5,2.86,0,0h3.39l0-.06A6.92,6.92,0,0,1,14,26.86Z"/><path class="cls-1" d="M30.5,19.53a.8.8,0,0,0,.64-.09A.85.85,0,0,0,30.29,18a.85.85,0,0,0,.21,1.56Z"/><path class="cls-1" d="M10.52,18a.8.8,0,0,0-.42-.11.85.85,0,0,0-.43,1.58.83.83,0,0,0,1.16-.31A.84.84,0,0,0,10.52,18Z"/><path class="cls-1" d="M21.26,36.56a.85.85,0,1,1-.85-.85.85.85,0,0,1,.85.85Z"/><path class="cls-1" d="M10.32,29.79a.83.83,0,0,0-.65.09.85.85,0,1,0,.85,1.47.84.84,0,0,0,.31-1.16.82.82,0,0,0-.51-.4Z"/><path class="cls-1" d="M30.29,31.35A.85.85,0,0,0,31.45,31a.84.84,0,0,0-.31-1.16.8.8,0,0,0-.64-.09.85.85,0,0,0-.21,1.56Z"/><path class="cls-1" d="M24.93,19.56l0,.06a6.92,6.92,0,0,1,1.87,2.84l1.49-2.86s0,0,0,0Z"/><path class="cls-1" d="M18.56,31.2l1.49,2.85a1.64,1.64,0,0,1,.72,0l1.49-2.85a6.71,6.71,0,0,1-3.7,0Z"/><path class="cls-1" d="M20.41,19.56a5.1,5.1,0,1,0,5.1,5.1,5.1,5.1,0,0,0-5.1-5.1ZM23,27.21h-5.1v-1.7H23Zm0-3.4h-5.1v-1.7H23Z"/><path class="cls-1" d="M25,29.7l0,.06h3.39s0,0,0,0l-1.49-2.86A6.92,6.92,0,0,1,25,29.7Z"/><path class="cls-1" d="M38.53,0H34V1.44A5.37,5.37,0,0,1,28.65,6.8a5.38,5.38,0,0,1-5.33-4.7L23.06,0h-5.3l-.27,2.1A5.37,5.37,0,0,1,6.8,1.44V0H2.29L0,6.11V21.05A29.63,29.63,0,0,0,20.41,49.28,29.63,29.63,0,0,0,40.82,21.05V6.11Zm.59,21.05A28.1,28.1,0,0,1,20.7,47.37l-.29.11-.29-.11A28.09,28.09,0,0,1,1.7,21.05V6.42L3.47,1.7h1.6l.1.73a7.07,7.07,0,0,0,14,0l.1-.73h2.28l.1.73a7.07,7.07,0,0,0,14,0l.11-.73h1.6l1.77,4.72Z"/><path class="cls-1" d="M28.65,10.2a8.82,8.82,0,0,1-8.24-5.77A8.77,8.77,0,0,1,4.1,4.86L3.4,6.72V21.05a26.39,26.39,0,0,0,17,24.62,26.4,26.4,0,0,0,17-24.62V6.72l-.69-1.86a8.82,8.82,0,0,1-8.07,5.34Zm.89,18.15a2.67,2.67,0,0,1,.52-.2A2.5,2.5,0,0,1,32,28.4a2.55,2.55,0,0,1-2.55,4.42h0a2.47,2.47,0,0,1-1.11-1.36H24l-1.77,3.38A2.49,2.49,0,0,1,23,36.56a2.55,2.55,0,1,1-5.1,0,2.52,2.52,0,0,1,.68-1.72l-1.76-3.38H12.49a2.48,2.48,0,0,1-1.12,1.36,2.55,2.55,0,0,1-3.48-.93,2.57,2.57,0,0,1,.93-3.49,2.53,2.53,0,0,1,1.94-.25,3.28,3.28,0,0,1,.52.2l1.93-3.69L11.28,21a2.57,2.57,0,0,1-.52.21,2.52,2.52,0,0,1-.67.09,2.63,2.63,0,0,1-1.27-.34,2.57,2.57,0,0,1-.93-3.49,2.54,2.54,0,0,1,3.48-.93h0a2.45,2.45,0,0,1,1.12,1.36h4.29l1.76-3.38a2.52,2.52,0,0,1-.68-1.72,2.55,2.55,0,1,1,5.1,0,2.49,2.49,0,0,1-.69,1.72L24,17.86h4.29a2.51,2.51,0,0,1,1.11-1.36A2.55,2.55,0,1,1,32,20.92a2.6,2.6,0,0,1-1.27.34,2.5,2.5,0,0,1-.66-.09,2.18,2.18,0,0,1-.52-.21l-1.94,3.7Z"/><path class="cls-1" d="M33.48,43.3V46L36,47V44.32Z"/><path class="cls-1" d="M39.85,47.92l-.59.88L37.5,47.63l.59-.88Z"/><path class="cls-1" d="M40.31,43.48l.21,1-2.07.42-.21-1Z"/><path class="cls-1" d="M33.11,48.52l-1.17,1.76-.89-.59,1.18-1.76Z"/><path class="cls-1" d="M36,48.67l.42,2.07-1,.21-.41-2.08Z"/></g></g></svg>