<svg xmlns="http://www.w3.org/2000/svg" viewBox="0 0 40 47.11"><defs><style>.cls-1{fill:none;stroke:#f2fbfc;stroke-miterlimit:10;}.cls-2{fill:#dce2e2;opacity:0.2;}.cls-3{fill:#f5ffff;}.cls-4,.cls-5{fill:#f2fbfc;}.cls-5{opacity:0.7;}</style></defs><title>single</title><g id="圖層_2" data-name="圖層 2"><g id="圖層_1-2" data-name="圖層 1"><path class="cls-1" d="M15.3,1.42A21.74,21.74,0,0,1,20.13.56a17.3,17.3,0,0,1,11.74,3,8.11,8.11,0,0,0,4.69.81s3.21-.54,2.92,2.15c0,0,0,1.34-2.34,1.34a2.69,2.69,0,0,1-1.85-.92A12.77,12.77,0,0,0,33.9,5.47,16.27,16.27,0,0,0,32,4.22a12.51,12.51,0,0,0-3.12-1.34,7.58,7.58,0,0,0-2.12-.23A4.6,4.6,0,0,0,24.85,3s5.27,1.62,6.73,12.1a16.74,16.74,0,0,0,1.61,7,7.85,7.85,0,0,0,1.67,2.26c.62.57,1.31,1.06,2,1.57.17.13,1.73,1.17,1,1.34a8.59,8.59,0,0,1-2.77.22,4.67,4.67,0,0,1,.17.92,18.33,18.33,0,0,1,.25,2.45,16.32,16.32,0,0,1-1.37,7.37,15,15,0,0,1-7.24,7.13,16.64,16.64,0,0,1-7.08,1.25,23.17,23.17,0,0,1-7.35-1.17,19.8,19.8,0,0,1-7.55-4.37A15.42,15.42,0,0,1,.81,27.27a22.47,22.47,0,0,1,1-2.94c.34-.95.63-1.92.94-2.87C3.78,18.29,4.81,15.1,6,12c0-.11.1-.23.14-.34,1.21-3.9,3.33-7.6,7.4-9.52A15.1,15.1,0,0,1,15.3,1.42Z"/><path class="cls-2" d="M19.9,3.33a3.05,3.05,0,0,1,1.28-.08,7.69,7.69,0,0,1,4,1A6.87,6.87,0,0,1,28.36,8.4a2,2,0,0,1-.78,2.38,3.15,3.15,0,0,1-1.67.24,7,7,0,0,1-4.45-2.45,8.55,8.55,0,0,1-1.85-2.52,3.17,3.17,0,0,1-.16-2.12,1,1,0,0,1,.3-.51Z"/><path class="cls-3" d="M26.93,8.29c-.07.06-1,.3-2.17-.74C24,6.86,23.49,6.24,24,5.82s1.72.06,2.46.74S27.39,7.87,26.93,8.29Z"/><path class="cls-2" d="M35.81,7.39s-.72-.6.16-.6a16.35,16.35,0,0,0,2.45-.11l.08,0c.2-.08,1.2-.42.82.35a2.31,2.31,0,0,1-2,.85H37.2A3.4,3.4,0,0,1,35.81,7.39Z"/><path class="cls-4" d="M8.17,14.05c0,1-.32,1.88-.73,1.88s-1-.85-1-1.88.62-1.89,1-1.89S8.17,13,8.17,14.05Z"/><path class="cls-2" d="M33.34,24.2c1,.83,1.4,1,1.62,1.19a7.11,7.11,0,0,0,1.45.89c2.05,1.07-1.17.8-2.16.72a18.24,18.24,0,0,0,.16,2.84A27.07,27.07,0,0,1,34.08,35a12.55,12.55,0,0,1-1.91,5.12S26.61,47.92,13.73,45a17.62,17.62,0,0,1-4.6-2.05,15.74,15.74,0,0,1-6.77-7,12.72,12.72,0,0,1,.26-9.8,16.78,16.78,0,0,1,4.45-6.35,15.56,15.56,0,0,1,3.06-2.08,17.91,17.91,0,0,1,11.21-1.74S28.07,17,31.58,22.11"/><path class="cls-5" d="M4.07,38.7S2.62,36.09,5.25,35c0,0,12.58-6.73,24.28-1.08,0,0,4.33,1.74,3.63,4.37,0,0-3.85,7.72-14.42,7.32C18.74,45.63,9.33,45.35,4.07,38.7Z"/><path class="cls-4" d="M3.67,37.6s5.09,4.67,10.65,5.75c0,0,7,1.88,12.29-1.08,0,0,5.83-3,6.57-5,0,0-.89,5-8.12,7.54,0,0-6.79,2.16-11.84-.18C13.22,44.61,5.31,42.07,3.67,37.6Z"/><path class="cls-3" d="M33,30.58a1.12,1.12,0,0,1-1,1.21c-.57,0-.73-.54-.73-1.21s.16-1.21.73-1.21A1.12,1.12,0,0,1,33,30.58Z"/><path class="cls-3" d="M20.64,17a.57.57,0,0,1-.27-.24.22.22,0,0,1,0-.22.39.39,0,0,1,.28-.11c.17,0,.34,0,.51,0a9.31,9.31,0,0,1,5.41,2.17c.26.25.87.67.71,1.08s-1-.16-1.19-.32-.67-.45-1-.66a15.17,15.17,0,0,0-2.37-1.13c-.42-.16-.85-.3-1.28-.42A5.23,5.23,0,0,1,20.64,17Z"/><ellipse class="cls-4" cx="18.12" cy="19.29" rx="2.34" ry="1.21"/><ellipse class="cls-4" cx="5.57" cy="18.35" rx="1.61" ry="1.08"/><path class="cls-4" d="M17.43,14.65c0,1.15-.36,2.08-.81,2.08s-1.13-.93-1.13-2.08.69-2.08,1.13-2.08S17.43,13.5,17.43,14.65Z"/><path class="cls-4" d="M14.61,18.35c-1.94-2-5.28-1.43-6.37-1.17-.65.15-.76.95-.89,1.46s-.2.93-.29,1.41-.2.77.05,1.11a1.36,1.36,0,0,0,.84.4,12.84,12.84,0,0,0,4.19-.14c1.07-.16,2.71-.63,2.9-1.81A1.57,1.57,0,0,0,14.61,18.35Zm-.81.38-.5-.32a7.28,7.28,0,0,0-1.16-.56l-.63-.2a2.22,2.22,0,0,1-.37-.09.28.28,0,0,1-.14-.12.09.09,0,0,1,0-.1c0-.05.08-.06.13-.06l.25,0A4.47,4.47,0,0,1,14,18.36c.13.12.43.33.35.53S13.9,18.81,13.8,18.73Z"/></g></g></svg>