<svg xmlns="http://www.w3.org/2000/svg" xmlns:xlink="http://www.w3.org/1999/xlink" viewBox="0 0 189.45 63.64"><defs><style>.cls-1{fill:url(#未命名漸層_33);}.cls-2{fill:#4b6687;}</style><linearGradient id="未命名漸層_33" x1="63.64" y1="31.82" x2="189.45" y2="31.82" gradientUnits="userSpaceOnUse"><stop offset="0.02" stop-color="#a6c4ee"/><stop offset="0.99" stop-color="#a8edea" stop-opacity="0"/></linearGradient></defs><title>title_bg</title><g id="圖層_2" data-name="圖層 2"><g id="圖層_1-2" data-name="圖層 1"><path class="cls-1" d="M145.84,63.64H63.64V6.3A6.3,6.3,0,0,1,69.93,0H185.6a3.83,3.83,0,0,1,3.16,6L151,60.91A6.28,6.28,0,0,1,145.84,63.64Z"/><path class="cls-2" d="M82.2,63.64H0V6.3A6.3,6.3,0,0,1,6.3,0H122a3.84,3.84,0,0,1,3.16,6L87.39,60.91A6.31,6.31,0,0,1,82.2,63.64Z"/></g></g></svg>