<svg xmlns="http://www.w3.org/2000/svg" viewBox="0 0 37.26 37.57"><defs><style>.cls-1{isolation:isolate;}.cls-2{opacity:0.4;}.cls-3{fill:#ff0808;}.cls-4{fill:#d30505;}.cls-5{fill:#ef0000;}.cls-6{fill:#fdc33c;}.cls-7{fill:#efad29;}.cls-8{fill:#e59f23;}.cls-9{fill:#fc6;}.cls-10{fill:#ffdfa6;}.cls-11{fill:#414042;mix-blend-mode:screen;}</style></defs><title>leader</title><g class="cls-1"><g id="圖層_2" data-name="圖層 2"><g id="圖層_1-2" data-name="圖層 1"><path class="cls-3" d="M30.65,10.89a7.94,7.94,0,0,0-3.72-.5c-4.87.31-5.63,2.56-10.39,4.77s-7,1.28-10.39,4.77A8,8,0,0,0,4.1,23.08c2.91,3.26,10,.63,15.26-1.78S30.49,14.29,30.65,10.89Z"/><path class="cls-4" d="M6.23,29c1.09,1.14,2.35,2.19,3.29,3.2a7,7,0,0,0,1.59,1.27c2-.11,6.7-1.68,11.92-4.07h0l0,0,.05,0h0C28.35,27,32.59,24.45,34,23a6.93,6.93,0,0,0,.08-2c-.15-1.37-.13-3-.29-4.58-2.64,3.05-7.13,6.27-12.63,8.79S10.27,29,6.23,29Z"/><path class="cls-5" d="M19,20.44A27.61,27.61,0,0,1,4.1,23.08c-.72,2.33.52,4.24,2.13,6,3.78.57,9.6-.89,15.11-3.42s10.3-5.94,12.43-9.23c-.24-2.33-.89-4.52-3.12-5.49A27.56,27.56,0,0,1,19,20.44Z"/><path class="cls-6" d="M34.12,8.66c-2.21-1.2-4.82-.72-7,.43a1.77,1.77,0,0,1,.17.12l.15.1A8.94,8.94,0,0,1,29,10.71c2.71-.51,4.88.6,5.57,3.15.73,2.71-.59,6-3.15,8.56-.25.26-.75.73-1.2,1.12A29.65,29.65,0,0,1,29,27.22l-.48.3.69.17c2-1,4.23-2.35,4.59-4.09C33.84,23.6,41.35,12.58,34.12,8.66Z"/><path class="cls-6" d="M.16,24.26c.53-2.46,2.59-4.12,4.87-5,0,.07,0,.14,0,.21s0,.12,0,.18a8.19,8.19,0,0,0,0,2.11C2.88,23.45,2.31,25.82,3.8,28s4.89,3.44,8.54,3.2c.36,0,1-.1,1.63-.19a28.36,28.36,0,0,0,3.57,1.49l.54-.17-.32.64c-2,.88-4.54,1.67-6.09.81C11.67,33.78-1.58,32.3.16,24.26Z"/><path class="cls-6" d="M26.83,8.74a7.19,7.19,0,0,0-7.51.32l0,0h0a3.66,3.66,0,0,1-4.5-.54,18.54,18.54,0,0,1-1.87-3.18l-.48.22h0L12,5.79a18.94,18.94,0,0,1,1.2,3.53A3.7,3.7,0,0,1,10.87,13l-.74.29h0A7.18,7.18,0,0,0,5,18.78C3.12,28.24,17.6,32.91,17.64,32.92a48.87,48.87,0,0,0,6-2.3,48.78,48.78,0,0,0,5.66-3.06S35.2,13.51,26.83,8.74ZM18.27,28.4A9,9,0,0,1,13,28.21a1.68,1.68,0,0,1-.57-.28h0c-5.69-4-6-9-2.65-11.75L10,16c2.38-1.76,5,.07,6.54,3.15.46.93,2.05,4.39,3,6.3A2.13,2.13,0,0,1,18.27,28.4Zm10.65-8h0a1.83,1.83,0,0,1-.16.62,9.22,9.22,0,0,1-3.3,4.14,2.13,2.13,0,0,1-3-1c-.86-1.93-2.45-5.39-2.85-6.34-1.36-3.16-1-6.36,1.87-7l.28-.06C26,9.94,29.62,13.45,28.92,20.35Z"/><path class="cls-6" d="M13.85,1.26,12.3,3.82A.74.74,0,0,0,12,3.7L12.5.76a.65.65,0,0,0-.92-.7L8.81,1.33a.65.65,0,0,0-.06,1.15L11.29,4a.75.75,0,0,0-.09.3L8.25,3.84a.65.65,0,0,0-.7.92L8.82,7.52A.65.65,0,0,0,10,7.59L11.54,5a.66.66,0,0,0,.28.09l-.5,3a.65.65,0,0,0,.92.7L15,7.52a.65.65,0,0,0,.06-1.15L12.48,4.79a.54.54,0,0,0,.11-.27l3,.5a.66.66,0,0,0,.7-.92L15,1.33A.66.66,0,0,0,13.85,1.26Z"/><path class="cls-7" d="M26.83,8.74a7.19,7.19,0,0,0-7.51.32l0,0h0a3.66,3.66,0,0,1-4.5-.54,5,5,0,0,1-.51-.68L15,7.52a.65.65,0,0,0,.06-1.15L12.48,4.79a.54.54,0,0,0,.11-.27l3,.5a.66.66,0,0,0,.7-.92L15,1.33a.66.66,0,0,0-1.16-.07L12.3,3.82A.74.74,0,0,0,12,3.7L12.5.76a.65.65,0,0,0-.92-.7L10.2.7l3.42,7.46h0L23.89,30.5a47.74,47.74,0,0,0,5.41-2.94S35.2,13.51,26.83,8.74Zm2.09,11.61h0a1.83,1.83,0,0,1-.16.62,9.22,9.22,0,0,1-3.3,4.14,2.13,2.13,0,0,1-3-1c-.86-1.93-2.45-5.39-2.85-6.34-1.36-3.16-1-6.36,1.87-7l.28-.06C26,9.94,29.62,13.45,28.92,20.35Z"/><path class="cls-6" d="M34.42,23.21c.12,1.3-4.56,4.53-10.79,7.39S11.9,34.91,11,34h0l1.19,2.6c.55,1.19,6.24-.26,12.73-3.24S36.18,27,35.64,25.8l-1.2-2.6Z"/><path class="cls-8" d="M34.4,22.44l-.13.3c.12.78-4.33,4.51-10.81,7.49s-12,4.2-12.73,3.24l-.39,0a.49.49,0,0,0-.06.58c.33.72,4.74,1.11,13.56-2.94,9.49-4.36,11.4-7.65,11.07-8.37C34.84,22.55,34.83,22.39,34.4,22.44Z"/><path class="cls-8" d="M34.4,22.44l-.13.3c.12.78-4.33,4.51-10.81,7.49s-12,4.2-12.73,3.24l-.39,0a.49.49,0,0,0-.06.58c.33.72,4.74,1.11,13.56-2.94,9.49-4.36,11.4-7.65,11.07-8.37C34.84,22.55,34.83,22.39,34.4,22.44Z"/><path class="cls-6" d="M23.71,30.77c-8.65,4-12.81,3.56-13.15,3.09a.29.29,0,0,1,0-.09h0c1.27,1.13,7.51-.72,13-3.25,5.83-2.67,10.83-6.43,11-7.71v0l0,0C34.77,23.21,33.42,26.31,23.71,30.77Z"/><path class="cls-8" d="M35.58,25.67l.06.13c.54,1.19-4.27,4.56-10.75,7.54s-12.18,4.43-12.73,3.24l-.06-.13c-.32.3-.46.52-.39.66.33.72,4.73,1.11,13.56-2.94,9.49-4.36,11.4-7.65,11.07-8.37C36.27,25.66,36,25.62,35.58,25.67Z"/><path class="cls-6" d="M25.13,33.88A35.13,35.13,0,0,1,14.6,37.2,46.7,46.7,0,0,0,25,33.63c4.57-2.1,11-5.75,11-7.65h.07C36.1,26.54,34.51,29.57,25.13,33.88Z"/><path class="cls-7" d="M13.94,35.33a.71.71,0,0,1-.35.93.69.69,0,0,1-.92-.34.7.7,0,0,1,1.27-.59Z"/><path class="cls-9" d="M13.53,36.11a.53.53,0,1,1-.45-1,.53.53,0,0,1,.71.26A.53.53,0,0,1,13.53,36.11Z"/><path class="cls-10" d="M13.25,35.55c-.09.13-.23.2-.31.14s-.08-.21,0-.35.24-.19.32-.14S13.35,35.42,13.25,35.55Z"/><path class="cls-7" d="M16.39,34.79a.7.7,0,1,1-.93-.34A.7.7,0,0,1,16.39,34.79Z"/><path class="cls-9" d="M16,35.57a.53.53,0,1,1,.26-.71A.53.53,0,0,1,16,35.57Z"/><path class="cls-7" d="M18.84,34.26a.69.69,0,0,1-.34.92.7.7,0,1,1-.58-1.27A.7.7,0,0,1,18.84,34.26Z"/><path class="cls-9" d="M18.43,35a.53.53,0,0,1-.71-.26.53.53,0,0,1,.26-.71.53.53,0,1,1,.45,1Z"/><path class="cls-7" d="M21.78,33.09a.7.7,0,1,1-.93-.34A.71.71,0,0,1,21.78,33.09Z"/><path class="cls-9" d="M21.37,33.87a.55.55,0,0,1-.72-.27.54.54,0,1,1,.72.27Z"/><path class="cls-7" d="M24.71,31.92a.7.7,0,1,1-1.27.58.69.69,0,0,1,.34-.92A.7.7,0,0,1,24.71,31.92Z"/><path class="cls-9" d="M24.3,32.7a.53.53,0,1,1,.26-.71A.53.53,0,0,1,24.3,32.7Z"/><circle class="cls-7" cx="27.19" cy="30.6" r="0.7"/><path class="cls-9" d="M27.42,31.09a.54.54,0,0,1-.71-.27.53.53,0,0,1,.26-.71.54.54,0,0,1,.71.27A.53.53,0,0,1,27.42,31.09Z"/><path class="cls-7" d="M31,28.7a.69.69,0,0,1-.34.92A.7.7,0,1,1,31,28.7Z"/><path class="cls-9" d="M30.54,29.48a.54.54,0,0,1-.71-.27.53.53,0,0,1,.26-.71.53.53,0,0,1,.71.26A.54.54,0,0,1,30.54,29.48Z"/><path class="cls-7" d="M33.09,27.12a.7.7,0,0,1-.34.93.69.69,0,0,1-.92-.34.7.7,0,0,1,.34-.93A.69.69,0,0,1,33.09,27.12Z"/><path class="cls-9" d="M32.68,27.9a.53.53,0,0,1-.71-.26.54.54,0,0,1,.27-.71.53.53,0,0,1,.71.26A.54.54,0,0,1,32.68,27.9Z"/><path class="cls-7" d="M35.24,25.55a.7.7,0,1,1-1.27.58.69.69,0,0,1,.34-.92A.7.7,0,0,1,35.24,25.55Z"/><path class="cls-9" d="M34.83,26.33a.53.53,0,1,1,.26-.71A.53.53,0,0,1,34.83,26.33Z"/><path class="cls-10" d="M15.67,35.06c-.1.13-.24.19-.32.13s-.08-.21,0-.34.23-.2.32-.14S15.76,34.92,15.67,35.06Z"/><path class="cls-10" d="M18.12,34.52c-.09.14-.24.2-.32.14s-.07-.21,0-.34.24-.2.32-.14S18.21,34.39,18.12,34.52Z"/><path class="cls-10" d="M21.05,33.36c-.09.13-.24.19-.32.14s-.08-.22,0-.35.23-.2.32-.14S21.14,33.22,21.05,33.36Z"/><path class="cls-10" d="M24,32.19c-.09.13-.24.2-.32.14s-.07-.21,0-.35.23-.19.32-.14S24.07,32.06,24,32.19Z"/><path class="cls-10" d="M27.13,30.56c-.09.14-.24.2-.32.14s-.07-.21,0-.34.23-.2.32-.14S27.22,30.43,27.13,30.56Z"/><path class="cls-10" d="M30.24,29c-.09.14-.24.2-.32.14s-.07-.21,0-.34.23-.2.32-.14S30.33,28.83,30.24,29Z"/><path class="cls-10" d="M32.33,27.4c-.09.14-.24.2-.32.14s-.07-.21,0-.34.23-.2.32-.14S32.42,27.27,32.33,27.4Z"/><path class="cls-10" d="M34.54,25.81c-.09.13-.24.19-.32.14s-.08-.22,0-.35.23-.2.32-.14S34.63,25.67,34.54,25.81Z"/><path class="cls-11" d="M11.76,33c-.08,0-7.43-.87-10-4.53a4.81,4.81,0,0,1-.77-4,6.19,6.19,0,0,1,3.21-3.89c0,.3-4.36,3-1,7.92C4.82,31,11.76,33,11.76,33Z"/><path class="cls-11" d="M15.12,31.21a18.6,18.6,0,0,1-8.73-7.52,5.16,5.16,0,0,1-.77-4,6.17,6.17,0,0,1,3.21-3.89c0,.29-4.31,2.89-1.45,8.12A18.86,18.86,0,0,0,15.12,31.21Z"/><path class="cls-11" d="M32.92,23.26c0-.06,4.17-6.2,3.11-10.57a4.83,4.83,0,0,0-2.55-3.21,6.16,6.16,0,0,0-5-.1c.22.19,5.1-1.35,6.66,4.39C35.89,16.68,32.92,23.26,32.92,23.26Z"/><path class="cls-11" d="M29.38,24.66a18.59,18.59,0,0,0,0-11.53,5.17,5.17,0,0,0-2.55-3.2,6.13,6.13,0,0,0-5-.11c.22.2,5-1.38,7.1,4.2A18.94,18.94,0,0,1,29.38,24.66Z"/></g></g></g></svg>